<?xml version="1.0" encoding="UTF-8"?>
<svg id="Camada_1" xmlns="http://www.w3.org/2000/svg" version="1.1" viewBox="0 0 756.35 179.32">
  <!-- Generator: Adobe Illustrator 30.3.0, SVG Export Plug-In . SVG Version: 2.1.3 Build 182)  -->
  <defs>
    <style>
      .st0 {
        fill: #70643e;
      }

      .st1 {
        fill: #fff;
      }
    </style>
  </defs>
  <g>
    <g>
      <path class="st0" d="M166.66,125.97l1.15.3,1.63.33,1.76.27,2.93.27h3.39c.59,0,1.15-.31,1.78-.2.59.1,1.13-.11,1.67-.2l1.77-.3,1.54-.33c2.89-.83,5.67-1.91,8.32-3.33l2.18-1.38c1.55-.98,2.9-2.1,4.29-3.27l1.59-1.58c1.46-1.46,2.68-3.02,3.87-4.74,1.98-2.87,3.42-6.06,4.5-9.38l.18-.81.31-1.23c1.25-5.02,1.17-10.12.07-15.15l-.21-.96-.28-.98-.19-.84-1.18-3.11c-.89-1.84-1.63-3.72-2.85-5.37l-2.46-3.33c-1.49-1.7-3.01-3.29-4.77-4.69-1.92-1.52-3.84-2.95-6.05-3.93l-3.94-1.76c-3.89-1.46-8.03-2.08-12.22-2.05-1.76.01-3.37.07-5.07.38l-1.59.29-1.23.27-1.06.24-1.18.33c-1.75.49-3.28,1.27-4.93,2.03-2.55,1.17-4.82,2.74-6.98,4.52-.14.12-.26.14-.38.16-.25.05-.25-.15-.37-.29l-3.68-4.28-2.74-3.19c-.1-.12-.17-.24-.19-.36-.03-.17.07-.29.22-.41l1.32-1.09,3.7-2.59,4.52-2.53,2.96-1.24,4.38-1.56,1.29-.33,1.12-.25,1.4-.27,2.15-.36c.68-.11,1.31-.3,2.03-.2l1.45-.22h6.23c.53,0,1.07.31,1.67.21.66-.11,1.27.11,1.89.21l2.16.35,1.26.25,1.38.3,1.29.34,7.19,2.76,2.69,1.48c5.69,3.14,10.58,7.6,14.41,12.84,1.43,1.95,2.63,3.93,3.75,6.09,1.3,2.5,2.22,5.13,3.14,7.78l.58,2.36.29,1.5.34,1.91c.12.67.31,1.31.21,2.03l.23,1.29v7.6c0,.38-.3.79-.23,1.19.12.68-.1,1.28-.21,1.9l-.33,1.9-.28,1.39-.23,1.03-.34,1.33-1.97,5.32c-.56,1.51-1.31,2.82-2.09,4.21-1.36,2.41-2.82,4.6-4.63,6.75-3.48,4.15-7.59,7.69-12.28,10.39-2.96,1.7-5.89,3.09-9.14,4.01l-3.93,1.11-1.06.19-1.7.3c-.62.11-1.22.34-1.9.2-.41-.09-.8.26-1.16.26l-7.9-.03-2.29-.26-1.7-.25c-4.35-.81-8.56-2.14-12.52-4.08l-3.85-2.12-2.52-1.75c-1.07-.74-2.12-1.47-3.04-2.38.04-.4.32-.62.54-.87l2.74-3.2,3.41-3.93c.04-.06.05-.27.13-.29.09-.01.32-.06.43.04,1.91,1.71,5.83,4.25,8.22,5.17l4.37,1.68.87.22Z"/>
      <g>
        <path class="st0" d="M153.83,93.08c0,24.92-20.22,45.13-45.16,45.13s-45.16-20.21-45.16-45.13,20.22-45.13,45.16-45.13,45.16,20.21,45.16,45.13ZM142.94,93.08c0-18.91-15.34-34.24-34.26-34.24s-34.26,15.33-34.26,34.24,15.34,34.24,34.26,34.24,34.26-15.33,34.26-34.24Z"/>
        <path class="st0" d="M33.47,69.85c-4.68,3.34-10.9,2.94-14.98-1.03-.72-.71-1.92-2.01-1.9-2.43,0-.18.13-.33.32-.46l2.45-1.74,8.9-6.34,3.45-2.48,2.99-2.08,1.65-1.25c1.64-1.24,3.36-2.29,4.96-3.58l2.3-1.54h11.41s0,88.63,0,88.63c0,1.22-.83,2.08-1.91,2.51l-7.52-.03c-1.13-.48-1.8-1.31-1.99-2.52V63.21c0-.87-.82,0-2.19.97l-7.95,5.67Z"/>
      </g>
    </g>
    <g>
      <path class="st0" d="M251.14,137.98l-8.17.03-1.69-.24c-1,.11-1.93-.02-2.91-.22-.41-.09-.92.1-1.3-.17.3-.63.91-.93,1.37-1.35l2.51-2.28,1.05-1.21c1.51-2.12,2.69-4.37,3.72-6.75l1.77-4.06.9-2.65.77-2.12.59-1.55,2.15-6.68,1.03-3.02,2-6.2,1.84-5.52.71-2.41,2.95-8.93.34-1.15,1.81-5.54,2.23-6.71,1.3-4.11.83-2.42c.74-2.14,1.5-4.21,2.73-6.12,1.45-2.26,3.1-4.28,5.39-5.69,1.45-.89,2.95-1.58,4.6-1.96l1.1-.26,1.37-.26,1.7-.23,3.38-.29,4.05-.04,1.73.17,2.86.13,3.06.21c.15.01.43.07.5.17.11.14.03.4-.14.55l-4.19,3.76-.64.87-1.73,2.95-2.26,4.58c-1.11,2.26-1.85,4.56-2.65,6.93l-1.79,5.31-3.88,11.86-1.68,4.97-.56,1.74-.56,2.01-.61,1.74-1.36,4.06-1.16,3.66-2.49,7.57-.82,2.62-1.37,4.06-1.15,3.53c-1.53,4.72-2.95,8.66-6.71,12.19-1.83,1.72-4.5,3.05-6.97,3.58l-1.66.35-1.54.29-2.37.25Z"/>
      <ellipse class="st0" cx="242.86" cy="63.68" rx="15.35" ry="15.34"/>
      <ellipse class="st0" cx="294.57" cy="122.77" rx="15.34" ry="15.33"/>
    </g>
  </g>
  <path class="st1" d="M360,131.31c-7.71,0-14.22-1.28-19.53-3.85-5.31-2.57-9.36-5.95-12.15-10.14-2.79-4.19-4.36-8.74-4.69-13.66h13.07c.34,2.79,1.31,5.5,2.93,8.13,1.62,2.63,4.11,4.75,7.46,6.37,3.35,1.62,7.71,2.43,13.07,2.43,1.68,0,3.74-.17,6.2-.5,2.46-.34,4.83-.95,7.12-1.84,2.29-.89,4.22-2.23,5.78-4.02,1.56-1.79,2.35-4.08,2.35-6.87,0-3.46-1.34-6.15-4.02-8.05-2.68-1.9-6.15-3.38-10.39-4.44-4.25-1.06-8.74-2.1-13.49-3.1-4.75-1.01-9.25-2.32-13.49-3.94-4.25-1.62-7.71-3.91-10.39-6.87-2.68-2.96-4.02-7.01-4.02-12.15,0-7.6,2.77-13.49,8.3-17.68,5.53-4.19,13.72-6.29,24.55-6.29,7.37,0,13.38,1.15,18.02,3.44,4.64,2.29,8.16,5.22,10.56,8.8,2.4,3.58,3.83,7.43,4.27,11.56h-12.74c-.45-3.58-2.21-6.65-5.28-9.22-3.07-2.57-8.13-3.85-15.17-3.85-13.3,0-19.94,4.02-19.94,12.07,0,3.35,1.34,5.92,4.02,7.71,2.68,1.79,6.15,3.21,10.39,4.27,4.25,1.06,8.74,2.07,13.49,3.02,4.75.95,9.25,2.26,13.49,3.94,4.25,1.68,7.71,4.05,10.39,7.12,2.68,3.07,4.02,7.23,4.02,12.49,0,8.16-3.1,14.39-9.3,18.69-6.2,4.3-14.5,6.45-24.89,6.45"/>
  <path class="st1" d="M442.79,119.91c6.26,0,11.59-1.45,16.01-4.36,4.41-2.91,7.79-6.79,10.14-11.65,2.35-4.86,3.52-10.14,3.52-15.84s-1.17-11.12-3.52-15.92c-2.35-4.8-5.73-8.66-10.14-11.56-4.41-2.91-9.75-4.36-16.01-4.36s-11.4,1.45-15.75,4.36c-4.36,2.9-7.65,6.76-9.89,11.56-2.23,4.8-3.35,10.11-3.35,15.92s1.12,10.98,3.35,15.84c2.23,4.86,5.53,8.74,9.89,11.65,4.36,2.9,9.61,4.36,15.75,4.36M401.9,163.15V46.16h12.57v13.41c3.13-4.58,7.18-8.18,12.15-10.81,4.97-2.63,10.92-3.94,17.85-3.94,8.16,0,15.28,1.93,21.37,5.78,6.09,3.85,10.81,9.05,14.16,15.59,3.35,6.54,5.03,13.83,5.03,21.87s-1.68,15.2-5.03,21.79c-3.35,6.59-8.07,11.82-14.16,15.67-6.09,3.85-13.21,5.78-21.37,5.78-6.93,0-12.88-1.37-17.85-4.11-4.97-2.74-9.02-6.34-12.15-10.81v46.76h-12.57Z"/>
  <path class="st1" d="M529.6,119.91c6.26,0,11.54-1.45,15.84-4.36,4.3-2.91,7.57-6.79,9.8-11.65,2.23-4.86,3.35-10.14,3.35-15.84s-1.12-11.12-3.35-15.92c-2.23-4.8-5.5-8.66-9.8-11.56-4.3-2.91-9.58-4.36-15.84-4.36s-11.4,1.45-15.75,4.36c-4.36,2.9-7.65,6.76-9.89,11.56-2.23,4.8-3.35,10.11-3.35,15.92s1.12,10.98,3.35,15.84c2.23,4.86,5.53,8.74,9.89,11.65,4.36,2.9,9.61,4.36,15.75,4.36M529.6,131.31c-8.49,0-15.87-1.93-22.12-5.78s-11.06-9.08-14.41-15.67c-3.35-6.59-5.03-13.86-5.03-21.79s1.68-15.34,5.03-21.87c3.35-6.54,8.16-11.73,14.41-15.59s13.63-5.78,22.12-5.78,16.01,1.93,22.21,5.78c6.2,3.85,10.98,9.05,14.33,15.59,3.35,6.54,5.03,13.83,5.03,21.87s-1.68,15.2-5.03,21.79c-3.35,6.59-8.13,11.82-14.33,15.67-6.2,3.85-13.6,5.78-22.21,5.78Z"/>
  <path class="st1" d="M579.37,129.97V46.16h12.57v20.62c.45-1.45,1.31-3.38,2.6-5.78,1.28-2.4,3.16-4.83,5.61-7.29,2.46-2.46,5.56-4.55,9.3-6.28,3.74-1.73,8.18-2.6,13.32-2.6h.84v12.57h-1.51c-6.26,0-11.65,1.7-16.17,5.11-4.53,3.41-7.99,7.82-10.39,13.24-2.4,5.42-3.6,11.2-3.6,17.35v36.87h-12.57Z"/>
  <polygon class="st1" points="637.85 129.97 637.85 57.23 620.76 57.23 620.76 46.16 637.85 46.16 637.85 16.16 650.42 16.16 650.42 46.16 669.7 46.16 669.7 57.23 650.42 57.23 650.42 129.97 637.85 129.97"/>
  <path class="st1" d="M705.56,131.31c-7.71,0-14.22-1.28-19.53-3.85-5.31-2.57-9.36-5.95-12.15-10.14-2.79-4.19-4.36-8.74-4.69-13.66h13.07c.34,2.79,1.31,5.5,2.93,8.13,1.62,2.63,4.11,4.75,7.46,6.37,3.35,1.62,7.71,2.43,13.07,2.43,1.68,0,3.74-.17,6.2-.5,2.46-.34,4.83-.95,7.12-1.84,2.29-.89,4.22-2.23,5.78-4.02,1.56-1.79,2.35-4.08,2.35-6.87,0-3.46-1.34-6.15-4.02-8.05s-6.15-3.38-10.39-4.44c-4.25-1.06-8.74-2.1-13.49-3.1-4.75-1.01-9.25-2.32-13.49-3.94-4.25-1.62-7.71-3.91-10.39-6.87-2.68-2.96-4.02-7.01-4.02-12.15,0-7.6,2.77-13.49,8.3-17.68,5.53-4.19,13.72-6.29,24.55-6.29,7.37,0,13.38,1.15,18.02,3.44,4.64,2.29,8.16,5.22,10.56,8.8,2.4,3.58,3.83,7.43,4.27,11.56h-12.74c-.45-3.58-2.21-6.65-5.28-9.22-3.07-2.57-8.13-3.85-15.17-3.85-13.3,0-19.94,4.02-19.94,12.07,0,3.35,1.34,5.92,4.02,7.71,2.68,1.79,6.15,3.21,10.39,4.27,4.25,1.06,8.74,2.07,13.49,3.02,4.75.95,9.25,2.26,13.49,3.94,4.25,1.68,7.71,4.05,10.39,7.12,2.68,3.07,4.02,7.23,4.02,12.49,0,8.16-3.1,14.39-9.3,18.69-6.2,4.3-14.5,6.45-24.89,6.45"/>
</svg>