<?xml version="1.0" encoding="UTF-8"?>
<svg id="Camada_1" xmlns="http://www.w3.org/2000/svg" version="1.1" viewBox="0 0 1005.26 219.43">
  <!-- Generator: Adobe Illustrator 30.1.0, SVG Export Plug-In . SVG Version: 2.1.1 Build 136)  -->
  <defs>
    <style>
      .st0 {
        fill: #fff;
      }

      .st1 {
        fill: #01e7fe;
      }
    </style>
  </defs>
  <path class="st0" d="M648.56,106.36c.08,25.46-12.73,46.78-33.59,55.06-22.01,8.74-46.03,4.4-62.37-14.51l-.92,60.6c-5.64,1.68-10.36,1.98-16.69-.12l-.04-155.2c3.9-2.97,15.49-3.85,16.07-.46l2.44,14.28c15.61-18.29,40.13-22.16,62.5-13,19.27,7.89,32.51,28.53,32.59,53.35ZM631.45,108.65c.9-26.25-17.38-45.25-41.01-44.96-23.87.29-39.7,19.52-39.38,44.02.31,23.89,16.2,42.35,39.39,42.54,22.42.18,40.15-16.67,41-41.59Z"/>
  <path class="st0" d="M825.67,67.02c-18.54,4.91-29.89,22.74-30.19,40.63l-.93,55.33c-5.49,1.53-10.73,1.62-16.74-.05l.03-111.98c6.09-1.2,11.21-1.12,16.55-.01,2.16,7.44-1.63,14.36,2.35,23.11,18.78-34.05,35.93-21.13,59.88-25.56l1.74-37.96c5.61-1.55,11.15-1.42,16.43.36l1,38.5c7.94,2.25,17.15-.87,23.78,1.8,2.82,1.53,3.12,11.36-.18,12.89-7.15,3.32-14.76-.54-23.98,1.48l-.5,97.13c-5.22,1.9-10.58,1.95-16.78.27l-.52-97.28c-10.98-.58-20.99-1.56-31.94,1.34Z"/>
  <path class="st0" d="M768.31,106.98c0,32.09-26.27,58.1-58.67,58.1s-58.67-26.01-58.67-58.1,26.27-58.1,58.67-58.1,58.67,26.01,58.67,58.1ZM749.35,106.66c-.07-25.4-17.2-43.48-40.67-42.97-23.62.51-39.1,19.59-38.76,43.94.34,24.64,16.92,43.34,41.22,42.64,22.31-.64,38.29-18.96,38.22-43.61Z"/>
  <path class="st1" d="M195.31,113.7c0,33.79-27.67,61.18-61.79,61.18s-61.79-27.39-61.79-61.18,27.67-61.18,61.79-61.18,61.79,27.39,61.79,61.18ZM180.41,113.71c0-25.64-20.99-46.43-46.89-46.43s-46.89,20.79-46.89,46.43,20.99,46.43,46.89,46.43,46.89-20.79,46.89-46.43Z"/>
  <path class="st0" d="M980.72,159.03c-16.42,8.29-35.53,8.34-52.39,3.13-14.93-4.61-26.32-18.14-27.36-32.26,3.93-3.24,11.48-2.25,15.96-.72,2.76.95,8.22,32.03,50.79,18.99,7.64-2.34,12.11-8.23,12.06-15.23s-4.8-12.55-12.54-14.55l-40.21-10.37c-12.77-3.29-22.21-11.8-23.23-23.29-1.15-12.99,3.78-25.59,16.99-31.22,24.92-10.62,67.97-6.81,72.22,25.56-4.71,2.16-9.39,2-14.9.95-3.15-.6-3.51-6.79-7.55-10.14-11.51-9.56-29.87-8.65-43.05-2.54-5.91,2.74-6.84,9.28-6.19,14.78.58,4.92,5.77,9.6,12.41,11.26l38.99,9.74c12.52,3.13,22.39,11.83,23.89,22.26,1.96,13.67-2.16,26.73-15.88,33.65Z"/>
  <path class="st0" d="M506.23,159.86c-35.01,15.55-78.86-1.48-77.11-29.78.22-3.57,10.62-1.89,13.43-1.67,4.74.36,9.38,33.78,52.87,19.55,7.4-2.42,11.64-8.59,11.64-14.98,0-6.88-5.05-12.56-12.57-14.5l-39.61-10.19c-12.88-3.31-22.84-11.67-24.01-23.33-1.31-13.04,4.11-26.15,17.43-31.58,30.23-12.33,71.56-1.41,70.95,25.19-.08,3.48-10.19,2.06-13.66,1.43-5.8-1.06-4.15-23.78-45.3-15.15-7.21,1.51-11.41,6.91-12.21,12.65-.96,6.87,4.01,13.47,11.52,15.38l40.47,10.29c13.49,3.43,23.32,12.75,24.19,24.9.93,12.96-3.85,25.49-18.02,31.79Z"/>
  <path class="st1" d="M194.75,149.34c20.57,15.48,48,13.32,64.44-3.58,17.86-18.37,17.53-45.29,2.08-63.11-16.88-19.46-45.26-21.18-65.72-6.32-4.15.39-9.19-6.35-9.9-10.65,24.87-20.9,62.66-18.36,85.05,5.04,22.19,23.2,22.86,59.39,1.26,83.35-22.14,24.58-60.72,27.96-86.38,6.43.35-3.78,3.95-8.18,9.18-11.17Z"/>
  <path class="st1" d="M349.98,162.66c-5.27,15.08-27.48,13.08-38.87,10.65,6.21-7.78,10.36-14.19,13.24-22.84l26.5-79.71c6.49-19.53,25.38-20.18,43.04-16.83-7.01,6.79-10.34,12.65-13.05,20.41l-30.86,88.32Z"/>
  <path class="st1" d="M44.77,172.33l-.4-97.82c-4.74-.02-7.64,3.17-11.07,5.87-8.31,6.54-19.61,6.81-25.51-3,13.98-8.71,37.43-33.79,52.29-25.05l-.47,119.16c-.02,4.49-11.19,4.84-14.85.84Z"/>
  <ellipse class="st1" cx="317.25" cy="73.83" rx="20.93" ry="20.73"/>
  <ellipse class="st1" cx="388" cy="153.97" rx="20.9" ry="20.69"/>
</svg>