<?xml version="1.0" encoding="UTF-8"?>
<svg id="Camada_1" xmlns="http://www.w3.org/2000/svg" version="1.1" viewBox="0 0 1072.48 168.27">
  <!-- Generator: Adobe Illustrator 30.1.0, SVG Export Plug-In . SVG Version: 2.1.1 Build 136)  -->
  <circle cx="456.09" cy="133.09" r="24.58" transform="translate(39.48 361.49) rotate(-45)"/>
  <path d="M415.54,25.31c-19.45,44.68-23.99,86.84-48.61,129.21,13.29,6.57,38.66,4.63,45.02-14.14l34.97-103.2c2.85-8.41,6.18-14.87,13.67-23.71-12.86-4.66-37.66-5.13-45.04,11.84Z"/>
  <path d="M151.03,10.79c-40.64,0-73.59,32.95-73.59,73.59s32.95,73.59,73.59,73.59,73.59-32.95,73.59-73.59S191.67,10.79,151.03,10.79ZM151.03,140.97c-31.26,0-56.61-25.35-56.61-56.61s25.35-56.61,56.61-56.61,56.61,25.35,56.61,56.61-25.35,56.61-56.61,56.61Z"/>
  <path d="M42.69,34.63l4.39,121.12c.18,4.96,16.22,1.44,16.15-3.41l-1.86-140.66c-1.85-6.75-19.52-1.52-24.8,2.37L0,40.99c13,15.07,28.34,6.31,42.69-6.36Z"/>
  <path d="M214.57,141.01c30.61,25.98,77.2,20.65,102.76-8.83,25-28.83,23.91-71.45-1.57-98.92-26.25-28.3-72.46-32.65-101.19-6.24-2.41,3.12,8.26,13.43,12.38,10.6,26.01-17.87,58.31-12.89,77.26,8.64,19.44,22.09,18.15,54.15.48,74.18-44.74,50.7-87.38-13.12-90.11,20.59Z"/>
  <circle cx="371.21" cy="36.1" r="24.55" transform="translate(-.99 59.93) rotate(-9.22)"/>
  <path d="M621.16,17.46l-56.56,117.15-54.16-113.97c-4.31-9.07-15.82-11.27-23.74-6.17l65.46,139.22c2.95,6.27,22.03,6.49,25.09.02L643.33,13.67c-7.51-2.47-18.6-3.61-22.17,3.79Z"/>
  <path d="M1019.72,14.36c-32.29-8.61-62.11,3.4-79.48,26.43-19.46,25.8-20.11,60.05-.72,86.64,22.61,31.02,66.63,39.97,98.89,20.39,10.46-6.35,17.41-17.55,9.19-30.03-17.61,18.21-36.49,28.21-61.33,21.86-19.03-4.87-39.02-20.4-43.11-45.82l104.27-.42c9.4-.04,17.76-.18,25.03-2.99v-17.01c-6.59-29.1-26.69-52.09-52.75-59.04ZM943.44,76.07c3.47-27.11,26.87-46.22,52.34-47.69,27.36-1.58,53.13,16.3,59.53,47.17l-111.87.51Z"/>
  <path d="M817.88,32.13c-28.68,27.69-29.24,73.12-3.62,101.35,26.76,29.48,72.36,32.7,102.6,6.19,4.53-3.97,2.74-11.04-.66-12.98-2.4-1.36-7.42-1.8-10.82.95-24.18,19.52-56.66,17.24-77.42-4.4-19.24-20.06-21.34-51.34-2.96-73.62,41.84-50.7,88.81,9.16,97.08-14.97-28.69-30.46-76.39-29.37-104.2-2.52Z"/>
  <path d="M710.97,157.9c40.4,0,73.15-32.75,73.15-73.15s-32.75-73.15-73.15-73.15-73.15,32.75-73.15,73.15,32.75,73.15,73.15,73.15ZM710.95,28.47c31.08,0,56.28,25.2,56.28,56.28s-25.2,56.28-56.28,56.28-56.28-25.2-56.28-56.28,25.2-56.28,56.28-56.28Z"/>
</svg>